<svg width="30" height="30" viewBox="0 0 30 30" fill="none" xmlns="http://www.w3.org/2000/svg">
<rect x="0.22" y="0.22" width="29.56" height="29.56" stroke="#E4D9C7" stroke-width="0.44"/>
<path d="M18.3525 13.5736C17.7401 15.5999 16.4891 17.3885 14.8024 18.6726L13.1002 17.4874C12.8913 17.342 12.6182 17.3299 12.4026 17.4498C11.7111 17.8242 10.9406 18.0977 10.1269 18.2434C9.76595 18.3081 9.52353 18.6562 9.58817 19.0172L9.99833 21.3074C10.063 21.6683 10.4112 21.9107 10.7721 21.8461C16.934 20.7426 21.0336 14.8543 19.93 8.69236C19.8654 8.33143 19.5172 8.08902 19.1563 8.15366L16.8595 8.56499C16.4986 8.62963 16.2561 8.97781 16.3208 9.33874C16.4677 10.159 16.4775 10.97 16.3663 11.7485C16.3352 11.9911 16.4336 12.2376 16.6502 12.3884L18.3525 13.5736Z" fill="#C37F53"/>
</svg>
