<svg width="30" height="30" viewBox="0 0 30 30" fill="none" xmlns="http://www.w3.org/2000/svg">
<rect x="0.220588" y="0.220588" width="29.5588" height="29.5588" stroke="#E4D9C7" stroke-width="0.441176"/>
<path d="M8.22796 15.2799L11.2167 16.3609L12.3818 19.9971C12.4325 20.2428 12.7364 20.292 12.939 20.1445L14.6107 18.8178C14.7627 18.6704 15.016 18.6704 15.2186 18.8178L18.2074 20.9307C18.41 21.0782 18.7139 20.9799 18.7646 20.7342L20.9935 10.4153C21.0441 10.1696 20.7909 9.92391 20.5376 10.0222L8.22796 14.6411C7.92401 14.7394 7.92401 15.1816 8.22796 15.2799ZM12.2299 15.8204L18.106 12.3317C18.2073 12.2825 18.3087 12.4299 18.2074 12.4791L13.395 16.8523C13.243 16.9997 13.091 17.1963 13.091 17.442L12.939 18.6213C12.939 18.7687 12.6858 18.8178 12.6351 18.6213L12.0272 16.4592C11.8752 16.2135 11.9766 15.9187 12.2299 15.8204Z" fill="#C37F53"/>
</svg>
