<svg width="30" height="30" viewBox="0 0 30 30" fill="none" xmlns="http://www.w3.org/2000/svg">
<rect x="0.220588" y="0.220588" width="29.5588" height="29.5588" stroke="#E4D9C7" stroke-width="0.441176"/>
<path fill-rule="evenodd" clip-rule="evenodd" d="M21.6704 11.625C21.7743 11.2725 21.6704 11.0162 21.2111 11.0162H19.6836C19.2983 11.0162 19.1204 11.2406 19.0166 11.4806C19.0166 11.4806 18.2308 13.5306 17.1336 14.8597C16.7777 15.2441 16.6147 15.3722 16.4219 15.3722C16.3181 15.3722 16.1845 15.2441 16.1845 14.8919V11.6084C16.1845 11.1922 16.0661 11 15.7397 11H13.3375C13.1001 11 12.9519 11.1922 12.9519 11.3844C12.9519 11.7847 13.5005 11.8809 13.5598 13.0019V15.4375C13.5598 15.9659 13.4723 16.0625 13.278 16.0625C12.7591 16.0625 11.4988 13.9966 10.7428 11.6425C10.5958 11.1762 10.4465 11 10.0609 11H8.51888C8.07408 11 8 11.2241 8 11.4644C8 11.8969 8.51888 14.0747 10.4168 16.9572C11.677 18.9259 13.4711 19.9841 15.0872 19.9841C16.0661 19.9841 16.1845 19.7437 16.1845 19.3434V17.8541C16.1845 17.3737 16.2734 17.2937 16.5849 17.2937C16.8072 17.2937 17.2076 17.4216 18.1121 18.3666C19.1498 19.4875 19.3278 20 19.9061 20H21.4333C21.8781 20 22.0858 19.7597 21.9671 19.2953C21.8338 18.8309 21.3295 18.1584 20.677 17.3578C20.3212 16.9097 19.7874 16.4131 19.6244 16.1728C19.4021 15.8525 19.4613 15.7244 19.6244 15.4363C19.6095 15.4363 21.4779 12.5856 21.6704 11.6238" fill="#C37F53"/>
</svg>
