<svg width="30" height="30" viewBox="0 0 30 30" fill="none" xmlns="http://www.w3.org/2000/svg">
<rect x="0.220588" y="0.220588" width="29.5588" height="29.5588" stroke="#E4D9C7" stroke-width="0.441176"/>
<path d="M20.0976 10.8958C18.8746 9.67708 17.2439 9 15.5226 9C11.9442 9 9.0453 11.8889 9.0453 15.4549C9.0453 16.5833 9.36237 17.7118 9.90592 18.6597L9 22L12.4425 21.0972C13.3937 21.5938 14.4355 21.8646 15.5226 21.8646C19.101 21.8646 22 18.9757 22 15.4097C21.9547 13.7396 21.3206 12.1146 20.0976 10.8958ZM18.6481 17.7569C18.5122 18.1181 17.878 18.4792 17.561 18.5243C17.2892 18.5694 16.9268 18.5694 16.5645 18.4792C16.338 18.3889 16.0209 18.2986 15.6585 18.1181C14.0279 17.441 12.9861 15.816 12.8955 15.6806C12.8049 15.5903 12.216 14.8229 12.216 14.0104C12.216 13.1979 12.6237 12.8368 12.7596 12.6562C12.8955 12.4757 13.0767 12.4757 13.2125 12.4757C13.3031 12.4757 13.439 12.4757 13.5296 12.4757C13.6202 12.4757 13.7561 12.4306 13.892 12.7465C14.0279 13.0625 14.3449 13.875 14.3902 13.9201C14.4355 14.0104 14.4355 14.1007 14.3902 14.191C14.3449 14.2812 14.2996 14.3715 14.2091 14.4618C14.1185 14.5521 14.0279 14.6875 13.9826 14.7326C13.892 14.8229 13.8014 14.9132 13.892 15.0486C13.9826 15.2292 14.2997 15.7257 14.7979 16.1771C15.4321 16.7187 15.9303 16.8993 16.1115 16.9896C16.2927 17.0799 16.3833 17.0347 16.4739 16.9444C16.5645 16.8542 16.8815 16.4931 16.9721 16.3125C17.0627 16.1319 17.1986 16.1771 17.3345 16.2222C17.4704 16.2674 18.2857 16.6736 18.4216 16.7639C18.6028 16.8542 18.6934 16.8993 18.7387 16.9444C18.784 17.0799 18.784 17.3958 18.6481 17.7569Z" fill="#C37F53"/>
</svg>
