<svg width="30" height="30" viewBox="0 0 30 30" fill="none" xmlns="http://www.w3.org/2000/svg">
<rect x="0.220588" y="0.220588" width="29.5588" height="29.5588" stroke="#E4D9C7" stroke-width="0.441176"/>
<path d="M8.3133 18.4572C8.59893 19.4799 9.47275 19.6671 9.53104 19.703C10.9691 20.0984 19.0299 20.0996 20.4895 19.703C21.4893 19.4111 21.6729 18.516 21.7073 18.4572C22.0879 16.4128 22.113 13.7475 21.6898 11.4278L21.7073 11.5431C21.4217 10.5203 20.5478 10.3332 20.4895 10.2973C19.0707 9.9083 10.9889 9.89358 9.53104 10.2973C8.53131 10.5898 8.34769 11.4842 8.3133 11.5431C7.90583 13.6916 7.88543 16.1568 8.3133 18.4572ZM13.6098 17.149V12.8572L17.2624 15.0063L13.6098 17.149Z" fill="#C37F53"/>
</svg>
