<svg width="22" height="18" viewBox="0 0 22 18" fill="none" xmlns="http://www.w3.org/2000/svg">
<path d="M12.5745 0.13892C12.53 0.182911 12.4947 0.235149 12.4706 0.292652C12.4466 0.350155 12.4342 0.411793 12.4342 0.474039C12.4342 0.536287 12.4466 0.597925 12.4706 0.655426C12.4947 0.712929 12.53 0.765169 12.5745 0.80916L20.3664 8.52639L0.478252 8.52639C0.351412 8.52639 0.229767 8.57629 0.140076 8.66512C0.0503864 8.75395 0 8.87443 0 9.00005C0 9.12568 0.0503864 9.24616 0.140076 9.33499C0.229767 9.42382 0.351412 9.47372 0.478252 9.47372L20.3664 9.47372L12.5745 17.1909C12.53 17.235 12.4948 17.2872 12.4707 17.3447C12.4467 17.4022 12.4343 17.4638 12.4343 17.5261C12.4343 17.5883 12.4467 17.6499 12.4707 17.7074C12.4948 17.7649 12.53 17.8172 12.5745 17.8612C12.6189 17.9052 12.6716 17.9401 12.7297 17.9639C12.7878 17.9877 12.85 18 12.9128 18C12.9757 18 13.0379 17.9877 13.0959 17.9639C13.154 17.9401 13.2068 17.9052 13.2512 17.8612L21.8597 9.33517C21.9042 9.29118 21.9395 9.23894 21.9635 9.18144C21.9876 9.12394 22 9.0623 22 9.00005C22 8.93781 21.9876 8.87617 21.9635 8.81867C21.9395 8.76116 21.9042 8.70893 21.8597 8.66493L13.2512 0.13892C13.2068 0.0948792 13.154 0.0599422 13.096 0.0361061C13.0379 0.0122681 12.9757 0 12.9128 0C12.85 0 12.7877 0.0122681 12.7297 0.0361061C12.6716 0.0599422 12.6189 0.0948792 12.5745 0.13892Z" fill="#F0F0F0"/>
</svg>
