<svg width="179" height="32" viewBox="0 0 179 32" fill="none" xmlns="http://www.w3.org/2000/svg">
<path d="M116.445 24.908V32.0001H91.5557V26.249L104.811 8.89688C100.395 8.89688 95.971 8.88788 91.5557 8.88788C91.5557 6.52087 91.5557 4.14485 91.5557 1.77783C99.7146 1.83183 107.874 1.88583 116.033 1.93983V7.78088L103.163 24.908H116.445Z" fill="#F0F0F0"/>
<path d="M78.7437 13.4414V24.5802H77.1198H75.523H65.2473V1.77783H56V32.0001H75.523H77.1198H88V27.5301V24.5802V13.4414H78.7437Z" fill="#F0F0F0"/>
<path d="M52.4446 8.75428V1.77783H29.3335V32.0001H52.4446V24.7793H38.5853V19.8478H49.7868V19.8569H52.4446V13.1338H49.7868H38.5853V8.75428H52.4446Z" fill="#F0F0F0"/>
<path d="M142.452 1.77783L138.259 17.83L133.867 1.77783H128.639H121.715H120V31.991H121.715H128.639H128.685V10.3921L134.511 32.0001C137.07 32.0001 139.62 32.0001 142.179 32.0001C143.459 24.7974 144.748 17.5947 146.027 10.3921V32.0001H154.667V1.77783H142.452Z" fill="#F0F0F0"/>
<path d="M88.8144 4.77766C88.7958 4.66502 88.7958 4.53362 88.7305 4.43037C88.516 4.08307 88.3015 3.72639 88.087 3.37909C88.0776 3.36032 88.0683 3.35093 88.0497 3.33216C88.0403 3.32277 88.0217 3.304 87.9937 3.28523C87.9471 3.26646 87.574 3.06934 87.0517 2.81591C86.9958 2.78775 86.9398 2.75959 86.8839 2.74082C86.8559 2.72205 86.8279 2.69389 86.7999 2.67512C86.6787 2.48739 86.5854 2.34659 86.5388 2.2715C86.5294 2.26211 86.5201 2.24334 86.5015 2.21518C86.4548 2.16825 86.4082 2.14009 86.3429 2.12132C86.3056 2.11193 86.2683 2.09316 86.231 2.08377C86.3149 2.28089 86.3989 2.54371 86.4362 2.86284C86.5108 3.47296 86.3709 3.97043 86.2683 4.24264C86.1937 3.84841 86.0818 3.36971 85.8673 2.84407C85.6994 2.42168 85.5129 2.05561 85.3357 1.76464C85.3263 1.76464 85.2983 1.75525 85.2704 1.74586C84.8134 1.68016 84.3564 1.62384 83.8994 1.55814C83.8341 1.54875 83.7595 1.54875 83.6942 1.5112C83.5076 1.3798 83.3211 1.24839 83.1346 1.11698C83.06 1.07005 82.9947 0.994955 82.9108 0.976182C82.603 0.882319 82.3139 0.844773 82.0247 0.863546C81.9594 0.863546 81.9035 0.872932 81.8662 0.872932C81.9688 1.02311 82.09 1.24839 82.1646 1.54875C82.3045 2.11193 82.1553 2.59064 82.0807 2.78775C82.0993 2.52493 82.118 1.54875 81.4465 0.872932C81.3066 0.732137 81.1574 0.628887 81.0175 0.54441C81.0175 0.54441 80.8123 0.581955 80.7283 0.563182C80.719 0.563182 80.7004 0.553796 80.6817 0.535023C80.6724 0.525637 80.6631 0.506864 80.6631 0.488091C80.6537 0.422387 80.6444 0.356682 80.6351 0.290977C80.6164 0.178341 80.4485 0.0187727 80.3366 0C80.318 0 80.2993 0 80.2807 0C80.0568 0.0469318 79.9449 0.178341 79.9263 0.403614C79.9263 0.413 79.9263 0.413 79.9263 0.422386C79.9263 0.450546 79.9169 0.459932 79.889 0.459932C79.7304 0.450546 79.5719 0.469319 79.432 0.356682C79.3014 0.253432 79.1895 0.272205 79.0589 0.366068C79.0216 0.394228 79.0029 0.422387 79.0029 0.459932C79.0029 0.553796 78.9936 0.638273 78.9843 0.732137C78.9843 0.769682 78.975 0.797841 78.9377 0.807227C78.8071 0.863546 78.6858 0.92925 78.5553 0.985569C78.49 1.01373 78.4527 1.05127 78.4247 1.10759C78.3408 1.26716 78.2475 1.42673 78.1915 1.60507C78.2941 1.66139 78.3967 1.71771 78.4993 1.77402C78.3314 1.95236 78.1729 2.13071 78.005 2.30905C78.033 2.22457 78.0516 2.14009 78.0703 2.04623C78.0983 1.91482 78.1262 1.78341 78.1356 1.66139C77.6972 1.97114 77.3708 2.19641 77.3521 2.2058C77.3521 2.2058 77.3335 2.21518 77.3335 2.22457C77.3335 2.23396 77.3335 2.25273 77.3428 2.26211C77.3801 2.37475 77.4174 2.48739 77.4454 2.60002C77.4547 2.66573 77.4827 2.69389 77.5387 2.71266C77.6506 2.75021 77.7345 2.81591 77.8091 2.90977C77.8371 2.94732 77.8744 2.96609 77.9211 2.97548C78.0796 3.02241 78.2382 3.05057 78.3874 2.93793C78.4247 2.90977 78.4527 2.92855 78.49 2.93793C78.7418 3.05057 78.9843 3.17259 79.2361 3.27584C79.3947 3.34155 79.5439 3.38848 79.7304 3.4448C79.7864 3.46357 79.9263 3.50112 79.9729 3.51989C80.234 4.02675 80.4952 4.543 80.7563 5.04986C81.0454 4.81521 81.3346 4.58055 81.6237 4.34589C81.3626 5.07802 81.1014 5.81016 80.8403 6.5423C80.6537 6.06359 80.4765 5.58489 80.29 5.10618C80.2527 5.37839 80.2247 5.65059 80.1874 5.93218C80.1501 6.08237 80.1128 6.23255 80.0848 6.39212C79.7491 7.48093 79.6092 7.92209 79.6092 7.94087C79.6092 7.95025 79.5998 7.96903 79.5905 7.9878C79.5812 7.99718 79.5812 8.00657 79.5719 8.00657C79.4693 8.09105 79.376 8.17552 79.2734 8.26939C79.2548 8.28816 79.2361 8.30693 79.2174 8.29755C79.1242 8.25062 79.0216 8.29755 78.9283 8.27878C78.8817 8.26939 78.8351 8.28816 78.7884 8.31632C78.6299 8.41957 78.5646 8.56975 78.5366 8.73871C78.518 8.78564 78.5273 8.83257 78.5553 8.86073C78.5646 8.87012 78.5739 8.8795 78.5926 8.88889C79.6838 8.88889 80.7657 8.88889 81.8569 8.88889C81.8662 8.8795 81.8755 8.8795 81.8848 8.87012C81.8942 8.86073 81.9035 8.85134 81.9035 8.84196C81.9221 8.82318 81.9315 8.80441 81.9408 8.78564C81.9781 8.72932 82.0247 8.65423 82.0714 8.54159C82.0714 8.53221 82.0714 8.53221 82.0807 8.52282C82.2392 8.30693 82.3791 8.09105 82.5284 7.87516C82.6403 7.71559 82.7615 7.56541 82.8361 7.39646C82.9574 7.12425 83.0786 6.86143 83.1906 6.58923C83.2185 6.52353 83.2465 6.46721 83.2652 6.4015C83.3118 6.28887 83.4051 6.21377 83.4797 6.1293C83.489 6.11991 83.4983 6.11991 83.4983 6.11991C83.517 6.11991 83.5356 6.1293 83.545 6.1293C83.5729 6.14807 83.9087 6.30764 84.3937 6.52353C84.403 6.53291 84.4123 6.5423 84.431 6.55168C84.431 6.56107 84.431 6.57984 84.431 6.58923C84.4123 6.65493 84.403 6.7488 84.3843 6.86143C84.3657 7.01162 84.3284 7.12425 84.375 7.23689C84.4683 7.48093 84.5336 7.72498 84.6175 7.96903C84.6268 8.00657 84.6268 8.03473 84.5895 8.06289C84.4869 8.13798 84.3843 8.20368 84.2818 8.28816C84.1885 8.36325 84.0859 8.4008 83.974 8.38202C83.8807 8.37264 83.7968 8.39141 83.7222 8.44773C83.6755 8.48528 83.6755 8.54159 83.6289 8.57914C83.545 8.64484 83.5077 8.73871 83.489 8.86073C83.5263 8.87012 83.5729 8.8795 83.6289 8.8795C83.6755 8.8795 83.7128 8.8795 83.7501 8.8795C85.1771 8.8795 86.6041 8.8795 88.031 8.8795C88.031 8.8795 88.0403 8.8795 88.0403 8.87012H88.0683C88.0683 8.87012 88.115 8.85134 88.1336 8.78564C88.1336 8.77625 88.1336 8.77625 88.1336 8.76687C88.1989 8.6073 88.2735 8.45712 88.3388 8.29755C88.3761 8.13798 88.4134 7.97841 88.4414 7.81884C88.6372 6.88021 88.7865 5.96973 88.8891 5.08741C88.8704 5.04048 88.8424 4.91846 88.8144 4.77766Z" fill="#F0F0F0"/>
<path d="M24.2817 6.26727C23.3025 4.74665 21.9696 3.61524 20.2922 2.88209C18.6148 2.13988 16.1666 1.77783 12.9388 1.77783H0V2.37522V4.87337V9.88778C0.34455 9.10937 0.843241 8.34001 1.54141 7.64306C2.05823 7.13619 2.60226 6.74698 3.12815 6.45734C3.12815 6.45734 3.88072 6.58406 4.189 6.51165C4.22527 6.5026 4.30687 6.4845 4.36128 6.41209C4.39755 6.36683 4.41568 6.30347 4.42475 6.22201C4.44288 5.98668 4.49728 5.75134 4.54262 5.51601C4.61516 5.11775 5.24079 4.52037 5.63974 4.46606C5.70321 4.45701 5.76668 4.46606 5.83015 4.47511C6.62805 4.64709 7.05421 5.13586 7.12674 5.95047C7.12674 5.96857 7.12674 5.98668 7.12674 6.00478C7.12674 6.10434 7.17208 6.1496 7.28089 6.1496C7.85211 6.12245 8.45054 6.1858 8.94017 5.78755C9.40259 5.41645 9.83781 5.47981 10.2912 5.8147C10.4181 5.91427 10.4906 6.00478 10.4997 6.1677C10.5088 6.5026 10.545 6.82845 10.5632 7.16334C10.5722 7.29911 10.6085 7.38963 10.7355 7.44393C11.2069 7.66116 11.6603 7.8965 12.1409 8.09562C12.3585 8.18614 12.5035 8.32191 12.6123 8.53009C12.9116 9.11842 13.2742 9.6796 13.4556 10.3222C13.0748 10.5304 12.6939 10.7386 12.3222 10.9468C12.9206 11.5894 13.5281 12.2321 14.1265 12.8747C14.0359 12.576 13.9543 12.2683 13.8817 11.9334C13.7729 11.4446 13.6913 10.9739 13.6279 10.5395C15.2418 11.6618 16.4115 12.4674 16.5112 12.5308C16.5203 12.5398 16.5656 12.567 16.5837 12.6122C16.6019 12.6575 16.5747 12.7027 16.5565 12.7661C16.4296 13.1734 16.2755 13.5807 16.1938 14.0061C16.1485 14.2324 16.0669 14.3501 15.8674 14.4134C15.4503 14.5401 15.1421 14.8026 14.8882 15.1285C14.7794 15.2642 14.6434 15.3276 14.4802 15.3819C13.8908 15.5539 13.3196 15.6444 12.7846 15.2371C12.6577 15.1466 12.5489 15.1918 12.4219 15.2461C11.5152 15.6625 10.6085 16.0879 9.69273 16.4862C9.12151 16.7305 8.56841 16.8935 7.87025 17.1107C7.6617 17.1741 7.14488 17.3279 6.9726 17.3822C6.02056 19.2377 5.06851 21.0842 4.1074 22.9397C3.05561 22.0889 1.99476 21.2471 0.942979 20.3963C1.90409 23.0483 2.85614 25.7004 3.81725 28.3524C4.47915 27.1667 5.13198 25.99 5.79388 24.8043C7.00887 27.2029 8.22386 29.6015 9.44792 32.0001V21.0118H14.7068C18.0617 21.0118 20.7455 20.1248 22.7584 18.3507C24.7713 16.5767 25.7778 14.2505 25.7778 11.3722C25.7506 9.48952 25.261 7.78788 24.2817 6.26727Z" fill="#F0F0F0"/>
<path d="M173.41 29.3209C173.576 28.7597 173.734 28.1985 173.9 27.6373C174.548 28.7778 175.196 29.9092 175.844 31.0497C176.788 28.4972 177.732 25.9447 178.667 23.3923C177.63 24.2069 176.594 25.0215 175.557 25.8361C174.622 24.053 173.678 22.2699 172.743 20.4868C172.577 20.4325 172.068 20.2877 171.855 20.2243C171.17 20.0162 170.624 19.8623 170.059 19.627C169.152 19.2468 168.264 18.8304 167.375 18.4322C167.255 18.3779 167.144 18.3326 167.023 18.4231C166.496 18.8123 165.931 18.7309 165.357 18.5589C165.191 18.5136 165.061 18.4503 164.95 18.3145C164.691 17.9977 164.395 17.7352 163.987 17.6176C163.793 17.5633 163.71 17.4456 163.664 17.2284C163.589 16.8211 163.432 16.4319 163.303 16.0336C163.284 15.9793 163.266 15.934 163.275 15.8888C163.293 15.8435 163.33 15.8164 163.34 15.8073C163.432 15.753 164.58 14.9655 166.172 13.8884C166.116 14.3048 166.033 14.7574 165.922 15.2371C165.848 15.5539 165.765 15.8616 165.681 16.1422C166.274 15.5267 166.866 14.9022 167.458 14.2867C167.088 14.0876 166.709 13.8884 166.338 13.6893C166.514 13.0738 166.875 12.5308 167.171 11.9605C167.273 11.7614 167.412 11.6347 167.634 11.5442C168.097 11.3541 168.55 11.1278 169.013 10.9196C169.143 10.8653 169.18 10.7748 169.18 10.6481C169.189 10.3313 169.226 10.0145 169.235 9.68865C169.245 9.53478 169.309 9.43521 169.439 9.3447C169.883 9.01886 170.309 8.9555 170.763 9.31755C171.244 9.6977 171.836 9.63434 172.401 9.6615C172.503 9.67055 172.549 9.62529 172.549 9.52573C172.549 9.50762 172.549 9.48952 172.549 9.47142C172.623 8.68396 173.039 8.22234 173.826 8.05037C173.891 8.04132 173.956 8.03227 174.011 8.04132C174.409 8.09562 175.02 8.66586 175.094 9.05506C175.14 9.28134 175.187 9.50762 175.205 9.73391C175.214 9.81537 175.233 9.86968 175.27 9.91493C175.326 9.97829 175.409 10.0054 175.437 10.0054C175.742 10.0779 176.482 9.95114 176.482 9.95114C177.001 10.2317 177.538 10.6028 178.037 11.0916C178.074 11.1278 178.111 11.1731 178.158 11.2093L175.131 1.77783H165.098L155.556 32.0001H163.256H172.641C172.901 31.4027 173.187 30.4975 173.41 29.3209Z" fill="#F0F0F0"/>
</svg>
