<svg width="26" height="30" viewBox="0 0 26 30" fill="none" xmlns="http://www.w3.org/2000/svg">
<path d="M22.003 29.25C20.963 29.25 20.0775 28.885 19.3465 28.155C18.6155 27.427 18.25 26.542 18.25 25.5C18.25 25.3 18.2675 25.0935 18.3025 24.8805C18.3365 24.6665 18.388 24.4655 18.457 24.2775L6.844 17.4345C6.477 17.8485 6.05 18.171 5.563 18.402C5.077 18.634 4.556 18.75 4 18.75C2.958 18.75 2.073 18.3855 1.345 17.6565C0.615 16.9285 0.25 16.044 0.25 15.003C0.25 13.963 0.615 13.0775 1.345 12.3465C2.072 11.6155 2.957 11.25 4 11.25C4.556 11.25 5.077 11.366 5.563 11.598C6.05 11.829 6.477 12.1515 6.844 12.5655L18.457 5.7225C18.388 5.5345 18.3365 5.3335 18.3025 5.1195C18.2675 4.9065 18.25 4.7 18.25 4.5C18.25 3.458 18.6145 2.573 19.3435 1.845C20.0715 1.115 20.956 0.75 21.997 0.75C23.037 0.75 23.9225 1.1145 24.6535 1.8435C25.3845 2.5715 25.75 3.456 25.75 4.497C25.75 5.537 25.385 6.4225 24.655 7.1535C23.927 7.8845 23.042 8.25 22 8.25C21.444 8.25 20.923 8.134 20.437 7.902C19.95 7.671 19.523 7.3485 19.156 6.9345L7.543 13.7775C7.612 13.9655 7.6635 14.1655 7.6975 14.3775C7.7325 14.5905 7.75 14.796 7.75 14.994C7.75 15.192 7.7325 15.3995 7.6975 15.6165C7.6635 15.8325 7.612 16.0345 7.543 16.2225L19.156 23.0655C19.523 22.6515 19.95 22.329 20.437 22.098C20.923 21.866 21.444 21.75 22 21.75C23.042 21.75 23.927 22.1145 24.655 22.8435C25.385 23.5715 25.75 24.456 25.75 25.497C25.75 26.537 25.3855 27.4225 24.6565 28.1535C23.9285 28.8845 23.044 29.25 22.003 29.25ZM22 6.75C22.617 6.75 23.1465 6.5295 23.5885 6.0885C24.0295 5.6465 24.25 5.117 24.25 4.5C24.25 3.883 24.0295 3.3535 23.5885 2.9115C23.1465 2.4705 22.617 2.25 22 2.25C21.383 2.25 20.8535 2.4705 20.4115 2.9115C19.9705 3.3535 19.75 3.883 19.75 4.5C19.75 5.117 19.9705 5.6465 20.4115 6.0885C20.8535 6.5295 21.383 6.75 22 6.75ZM4 17.25C4.617 17.25 5.1465 17.0295 5.5885 16.5885C6.0295 16.1465 6.25 15.617 6.25 15C6.25 14.383 6.0295 13.8535 5.5885 13.4115C5.1465 12.9705 4.617 12.75 4 12.75C3.383 12.75 2.8535 12.9705 2.4115 13.4115C1.9705 13.8535 1.75 14.383 1.75 15C1.75 15.617 1.9705 16.1465 2.4115 16.5885C2.8535 17.0295 3.383 17.25 4 17.25ZM22 27.75C22.617 27.75 23.1465 27.5295 23.5885 27.0885C24.0295 26.6465 24.25 26.117 24.25 25.5C24.25 24.883 24.0295 24.3535 23.5885 23.9115C23.1465 23.4705 22.617 23.25 22 23.25C21.383 23.25 20.8535 23.4705 20.4115 23.9115C19.9705 24.3535 19.75 24.883 19.75 25.5C19.75 26.117 19.9705 26.6465 20.4115 27.0885C20.8535 27.5295 21.383 27.75 22 27.75Z" fill="#C37F53"/>
</svg>
