<svg width="22" height="18" viewBox="0 0 22 18" fill="none" xmlns="http://www.w3.org/2000/svg">
<path d="M9.42554 0.13892C9.47001 0.182911 9.50528 0.235149 9.52935 0.292652C9.55342 0.350155 9.56581 0.411793 9.56581 0.474039C9.56581 0.536287 9.55342 0.597925 9.52935 0.655426C9.50528 0.712929 9.47001 0.765169 9.42554 0.80916L1.63361 8.52639L21.5217 8.52639C21.6486 8.52639 21.7702 8.57629 21.8599 8.66512C21.9496 8.75395 22 8.87443 22 9.00005C22 9.12568 21.9496 9.24616 21.8599 9.33499C21.7702 9.42382 21.6486 9.47372 21.5217 9.47372L1.63361 9.47372L9.42554 17.1909C9.46998 17.235 9.50522 17.2872 9.52927 17.3447C9.55332 17.4022 9.5657 17.4638 9.5657 17.5261C9.5657 17.5883 9.55332 17.6499 9.52927 17.7074C9.50522 17.7649 9.46998 17.8172 9.42554 17.8612C9.38111 17.9052 9.32835 17.9401 9.2703 17.9639C9.21224 17.9877 9.15002 18 9.08718 18C9.02434 18 8.96211 17.9877 8.90406 17.9639C8.846 17.9401 8.79325 17.9052 8.74881 17.8612L0.140265 9.33517C0.0957987 9.29118 0.0605236 9.23894 0.0364559 9.18144C0.0123881 9.12394 0 9.0623 0 9.00005C0 8.93781 0.0123881 8.87617 0.0364559 8.81867C0.0605236 8.76116 0.0957987 8.70893 0.140265 8.66493L8.74881 0.13892C8.79323 0.0948792 8.84598 0.0599422 8.90404 0.0361061C8.9621 0.0122681 9.02433 0 9.08718 0C9.15003 0 9.21226 0.0122681 9.27032 0.0361061C9.32838 0.0599422 9.38112 0.0948792 9.42554 0.13892Z" fill="#F0F0F0"/>
</svg>
